<?xml version="1.0" encoding="UTF-8"?>
<svg version="1.1" xmlns="http://www.w3.org/2000/svg" width="692" height="692">
<path d="M0 0 C228.36 0 456.72 0 692 0 C692 228.36 692 456.72 692 692 C463.64 692 235.28 692 0 692 C0 463.64 0 235.28 0 0 Z " fill="#FEFEFD" transform="translate(0,0)"/>
<path d="M0 0 C-0.00967804 0.92104523 -0.01935608 1.84209045 -0.02932739 2.79104614 C-0.11214574 11.52841503 -0.14608857 20.26437485 -0.12697029 29.00213814 C-0.1188186 33.49310858 -0.128677 37.98244603 -0.18164062 42.47314453 C-0.23219095 46.81815497 -0.23289156 51.16072726 -0.20095444 55.50588608 C-0.19724177 57.15227446 -0.21062682 58.79880499 -0.24249649 60.44488907 C-0.47444828 73.31117564 2.64286104 80.30286501 11 90 C12.08456897 91.43692788 13.16026 92.8807671 14.21484375 94.33984375 C15.12103267 95.54009291 16.02855807 96.73933433 16.9375 97.9375 C17.94714375 99.27824751 18.95624447 100.61940409 19.96484375 101.9609375 C20.46483887 102.62577148 20.96483398 103.29060547 21.47998047 103.97558594 C23.99819191 107.32942617 26.50538781 110.69107077 29 114.0625 C29.444646 114.65732178 29.88929199 115.25214355 30.34741211 115.86499023 C32.78530741 119.17126636 34.86012428 122.51672436 36.86035156 126.11303711 C39.22872247 130.03444644 42.09709136 133.61372473 44.875 137.25 C46.21167291 139.01506832 47.54759075 140.78070866 48.8828125 142.546875 C49.5624707 143.44470703 50.24212891 144.34253906 50.94238281 145.26757812 C54.24524189 149.6536245 57.49912014 154.07535876 60.75 158.5 C61.89061402 160.0520914 63.03123825 161.6041753 64.171875 163.15625 C64.6472168 163.80400391 65.12255859 164.45175781 65.61230469 165.11914062 C67.0643563 167.08722746 68.53253447 169.04337929 70 171 C70.33 139.98 70.66 108.96 71 77 C87.5 77 104 77 121 77 C121 134.75 121 192.5 121 252 C105.16 252 89.32 252 73 252 C68.38 246.06 63.76 240.12 59 234 C56.14997883 230.33917385 56.14997883 230.33917385 53.29980469 226.6784668 C46.38382902 217.79381311 39.51000782 208.87804353 32.65625 199.9453125 C27.24729515 192.90313428 21.80868579 185.88473524 16.34863281 178.88208008 C11.20255408 172.27703811 6.10557975 165.63725367 1 159 C0.67 189.69 0.34 220.38 0 252 C-18.48 252 -36.96 252 -56 252 C-56 231.21 -56 210.42 -56 189 C-85.7 189 -115.4 189 -146 189 C-146 209.79 -146 230.58 -146 252 C-169.1 252 -192.2 252 -216 252 C-216 242.43 -216 232.86 -216 223 C-206 216 -206 216 -204 216 C-204 170.13 -204 124.26 -204 77 C-184.86 77 -165.72 77 -146 77 C-146 98.78 -146 120.56 -146 143 C-121.25 143 -96.5 143 -71 143 C-71.19142578 132.8525 -71.19142578 132.8525 -71.38671875 122.5 C-71.44294372 118.20691479 -71.49589528 113.91428523 -71.53710938 109.62109375 C-71.60280163 102.81039852 -71.6803952 96.00133412 -71.82983398 89.19189453 C-71.94960328 83.69985143 -72.01517536 78.20955707 -72.04364967 72.71630859 C-72.06393238 70.62374334 -72.1035444 68.53127102 -72.16303062 66.43945312 C-72.61091682 50.03296423 -72.61091682 50.03296423 -68.59864807 44.96951294 C-65.80284633 42.90803035 -63.16141593 41.41763802 -60 40 C-58.84133267 39.2693463 -57.6937199 38.52034478 -56.56640625 37.7421875 C-55.57511719 37.12601563 -54.58382812 36.50984375 -53.5625 35.875 C-47.81849544 32.24703807 -42.23939163 28.41471075 -36.6875 24.5 C-29.17007965 19.20209284 -21.61507946 13.96387036 -14.01504517 8.78540039 C-12.88177766 8.01300146 -11.74910503 7.23972899 -10.61703491 6.46557617 C-9.03409577 5.383494 -7.44874479 4.30494255 -5.86328125 3.2265625 C-4.49103394 2.29191162 -4.49103394 2.29191162 -3.09106445 1.33837891 C-1 0 -1 0 0 0 Z " fill="#056A38" transform="translate(432,140)"/>
<path d="M0 0 C2.18347196 2.14678783 4.05533038 4.30654355 5.86328125 6.78125 C6.41363037 7.53148437 6.96397949 8.28171875 7.53100586 9.0546875 C8.11889893 9.86164063 8.70679199 10.66859375 9.3125 11.5 C10.57010701 13.21890036 11.82792569 14.93764587 13.0859375 16.65625 C14.05418457 17.98076172 14.05418457 17.98076172 15.04199219 19.33203125 C16.94681817 21.92753478 18.86507636 24.51242695 20.7890625 27.09375 C30.98371217 40.78985205 30.98371217 40.78985205 34.4375 46.4375 C39.3749063 54.46388663 45.3082012 61.8273894 50.99072266 69.33203125 C54.27762163 73.69645798 57.51487819 78.09712602 60.75 82.5 C61.8906202 84.05208686 63.03124486 85.60417045 64.171875 87.15625 C64.8848877 88.12788086 64.8848877 88.12788086 65.61230469 89.11914062 C67.0643563 91.08722746 68.53253447 93.04337929 70 95 C70.33 63.98 70.66 32.96 71 1 C87.5 1 104 1 121 1 C121 58.75 121 116.5 121 176 C105.16 176 89.32 176 73 176 C68.38 170.06 63.76 164.12 59 158 C56.14997883 154.33917385 56.14997883 154.33917385 53.29980469 150.6784668 C46.38382902 141.79381311 39.51000782 132.87804353 32.65625 123.9453125 C27.19829496 116.83933857 21.70743094 109.75972334 16.20141602 102.69091797 C11.7059252 96.91656417 7.2404108 91.12001477 2.79296875 85.30859375 C1.19991086 83.15833336 1.19991086 83.15833336 0 82 C-0.09506052 79.44410112 -0.12556761 76.91532028 -0.11352539 74.35913086 C-0.11367142 73.55919205 -0.11381744 72.75925323 -0.1139679 71.93507385 C-0.11326855 69.27830335 -0.10547518 66.62160207 -0.09765625 63.96484375 C-0.09579215 62.12781309 -0.09436821 60.29078194 -0.09336853 58.45375061 C-0.08954275 53.60890338 -0.07971196 48.76408592 -0.06866455 43.91925049 C-0.05845172 38.97937422 -0.05387119 34.03949315 -0.04882812 29.09960938 C-0.03808974 19.39972647 -0.0210126 9.69986571 0 0 Z " fill="#19A245" transform="translate(432,216)"/>
<path d="M0 0 C16.5 0 33 0 50 0 C50 57.75 50 115.5 50 175 C33.5 175 17 175 0 175 C0 117.25 0 59.5 0 0 Z " fill="#24AC44" transform="translate(131,217)"/>
<path d="M0 0 C19.14 0 38.28 0 58 0 C58 21.78 58 43.56 58 66 C82.75 66 107.5 66 133 66 C133 66.33 133 66.66 133 67 C132.19071045 66.96221436 131.3814209 66.92442871 130.54760742 66.88549805 C112.5763226 66.2392507 100.03106584 67.13836555 85.89599609 79.38427734 C83.32030277 81.57922177 80.56435103 83.43747958 77.75 85.3125 C73.71422018 88.11125919 69.68299022 90.91650997 65.65234375 93.72265625 C55.18703386 101.00846641 44.72154604 108.29296763 34.19775391 115.49414062 C31.62298467 117.25832377 29.05195482 119.02790998 26.48046875 120.796875 C24.52877762 122.13560882 22.57695539 123.47415152 20.625 124.8125 C19.72128662 125.43519775 18.81757324 126.05789551 17.88647461 126.69946289 C17.00870361 127.30008545 16.13093262 127.90070801 15.2265625 128.51953125 C14.45908691 129.04651611 13.69161133 129.57350098 12.90087891 130.11645508 C8.67406504 132.86093151 4.32146713 135.40711972 0 138 C0 92.46 0 46.92 0 0 Z " fill="#46B443" transform="translate(228,217)"/>
<path d="M0 0 C16.5 0 33 0 50 0 C50 57.75 50 115.5 50 175 C49.67 175 49.34 175 49 175 C49 173.02 49 171.04 49 169 C48.01 168.67 47.02 168.34 46 168 C44.98234073 166.00892752 43.98422146 164.00781177 43 162 C42.38125 161.3915625 41.7625 160.783125 41.125 160.15625 C38.72588355 157.72185243 37.18010179 155.25196436 35.4375 152.3125 C32.28065185 147.06189324 29.02635093 141.88682982 25.6875 136.75 C24.99358154 135.68084351 24.99358154 135.68084351 24.28564453 134.59008789 C22.85831807 132.39259474 21.42942644 130.19612764 20 128 C-0.15420374 97.0356897 -0.15420374 97.0356897 -0.11352539 86.96044922 C-0.11367142 86.02381439 -0.11381744 85.08717957 -0.1139679 84.12216187 C-0.11326944 81.01631378 -0.10548015 77.91052515 -0.09765625 74.8046875 C-0.09579183 72.65520256 -0.09436804 70.5057172 -0.09336853 68.35623169 C-0.08954522 62.69104851 -0.07971651 57.02589085 -0.06866455 51.36071777 C-0.05665078 44.56758654 -0.0520473 37.77444679 -0.04621124 30.98130798 C-0.03650467 20.65418756 -0.01734679 10.32712316 0 0 Z " fill="#036535" transform="translate(503,217)"/>
<path d="M0 0 C6.10599619 4.83721776 9.88343786 11.21583419 11.9296875 18.6796875 C12.99713245 30.54570346 11.95229013 40.11434139 4.1796875 49.5546875 C-0.93232242 54.96290734 -7.00465724 58.40103023 -14.546875 58.91796875 C-26.08678735 59.22906648 -33.61183259 57.64803522 -42.28125 49.53125 C-48.56456538 43.02843015 -50.99319611 37.0053466 -51.4453125 27.9921875 C-51.17588673 18.26292343 -48.22191637 9.53664546 -41.35546875 2.5546875 C-29.40445352 -7.25127371 -13.08743473 -8.3463263 0 0 Z " fill="#088540" transform="translate(270.0703125,419.3203125)"/>
<path d="M0 0 C37.70909091 0 37.70909091 0 45.6875 7.4375 C50.42694446 13.76165035 50.79583745 20.34006459 50 28 C48.594092 32.8727493 46.00458352 36.9128582 41.875 39.96875 C33.72884654 44.4491344 25.0512732 44.29197655 16 44 C16 49.94 16 55.88 16 62 C10.72 62 5.44 62 0 62 C0 41.54 0 21.08 0 0 Z " fill="#29AE48" transform="translate(506,415)"/>
<path d="M0 0 C35.92727273 0 35.92727273 0 43.5 7.4375 C47.60596066 12.58188676 48.50475662 17.63250709 48.3828125 24.078125 C47.58374666 30.17711734 44.82067236 35.13264373 40.5625 39.5 C34.61693333 42.98033171 29.32086341 43.26274487 22.625 43.125 C19.77875 43.08375 16.9325 43.0425 14 43 C14 49.27 14 55.54 14 62 C9.38 62 4.76 62 0 62 C0 41.54 0 21.08 0 0 Z " fill="#0D8F43" transform="translate(323,415)"/>
<path d="M0 0 C5.28 0 10.56 0 16 0 C16.01458252 1.24612061 16.02916504 2.49224121 16.04418945 3.77612305 C16.102243 8.40759712 16.17947576 13.03858862 16.26245117 17.66967773 C16.29566727 19.67252764 16.32370952 21.6754704 16.34643555 23.6784668 C16.38004234 26.56078594 16.43236148 29.44225668 16.48828125 32.32421875 C16.49467117 33.21711105 16.5010611 34.11000336 16.50764465 35.029953 C16.64993021 41.07164186 17.61150195 44.61150195 22 49 C28.4183392 49.58816888 28.4183392 49.58816888 34 47 C36.92825253 41.41655619 37.46413968 36.81223657 37.51171875 30.56640625 C37.52966995 29.68846909 37.54762115 28.81053192 37.56611633 27.9059906 C37.61993679 25.12487471 37.65402364 22.34392763 37.6875 19.5625 C37.72069808 17.66729436 37.75519003 15.77211092 37.79101562 13.87695312 C37.87564675 9.25142445 37.942592 4.62594338 38 0 C42.95 0 47.9 0 53 0 C53.09953497 5.94070658 53.17178154 11.88091827 53.21972656 17.82226562 C53.23973216 19.83960435 53.2669456 21.8568859 53.30175781 23.87402344 C53.35076577 26.78855573 53.37307964 29.70231559 53.390625 32.6171875 C53.41127014 33.50614716 53.43191528 34.39510681 53.45318604 35.31100464 C53.45609278 43.58641571 51.32411526 50.74397365 45.6875 56.9375 C40.93411308 61.62183045 35.35190835 63.36189108 28.84692383 63.51977539 C21.02150918 63.44811246 14.31060405 63.23645868 8 58 C0.67991807 50.06607472 -0.32491153 40.77283864 -0.1953125 30.37109375 C-0.1924826 29.49598648 -0.18965271 28.62087921 -0.18673706 27.71925354 C-0.17565394 24.95852245 -0.15057257 22.19813095 -0.125 19.4375 C-0.11495482 17.55143702 -0.10583168 15.66536889 -0.09765625 13.77929688 C-0.07575368 9.18606957 -0.04130764 4.59309211 0 0 Z " fill="#26AC46" transform="translate(411,415)"/>
<path d="M0 0 C16.5 0 33 0 50 0 C50 4.29 50 8.58 50 13 C44.06 13 38.12 13 32 13 C32 29.17 32 45.34 32 62 C27.05 62 22.1 62 17 62 C17 45.83 17 29.66 17 13 C11.39 13 5.78 13 0 13 C0 8.71 0 4.42 0 0 Z " fill="#0A8142" transform="translate(131,415)"/>
<path d="M0 0 C4.81578596 3.45480297 8.00685316 8.45805949 9.875 14.0625 C10.32559643 20.59614831 9.94174103 27.53490991 5.4453125 32.70703125 C0.89017772 36.63895107 -3.04013693 37.4191216 -8.84375 37.34375 C-13.60021811 36.75733612 -16.34875322 33.92266535 -19.4375 30.5 C-23.25847912 24.98080793 -22.78360412 18.5213109 -22.125 12.0625 C-20.49385212 7.17608718 -18.10004234 3.95087191 -14.3125 0.5 C-9.20069378 -1.80532437 -5.3137478 -1.59412434 0 0 Z " fill="#F5FDFA" transform="translate(257.125,427.9375)"/>
<path d="M0 0 C19.14 0 38.28 0 58 0 C58 0.66 58 1.32 58 2 C53.38199644 2.17171497 48.76376329 2.33167934 44.14501953 2.48217773 C42.58404407 2.53452849 41.02316072 2.58972738 39.46240234 2.64819336 C27.25012092 3.10269574 15.19535172 2.76841934 3 2 C2.97470627 8.94172388 2.95715696 15.88343594 2.94506836 22.82519531 C2.94003041 25.18815556 2.93319992 27.55111268 2.92456055 29.9140625 C2.91247146 33.30469535 2.90676641 36.69528709 2.90234375 40.0859375 C2.89718246 41.14743011 2.89202118 42.20892273 2.88670349 43.30258179 C2.88659019 44.77388046 2.88659019 44.77388046 2.88647461 46.27490234 C2.884254 47.14094086 2.88203339 48.00697937 2.87974548 48.89926147 C2.86446254 51.0583966 2.86446254 51.0583966 4 53 C3.6732039 55.33425788 3.33859959 57.66742506 3 60 C2.97669225 61.43731103 2.97643759 62.87519312 3 64.3125 C3 68 3 68 2 70 C2.66 70 3.32 70 4 70 C3.83832336 70.87058044 3.67664673 71.74116089 3.5100708 72.63812256 C3.03809163 75.74893804 2.86085762 78.64839143 2.83886719 81.79003906 C2.82445587 83.46141937 2.82445587 83.46141937 2.80975342 85.16656494 C2.80550354 86.35425476 2.80125366 87.54194458 2.796875 88.765625 C2.79117493 89.99537048 2.78547485 91.22511597 2.77960205 92.49212646 C2.77017641 95.0842605 2.76362778 97.67640639 2.75976562 100.26855469 C2.75323683 102.93034458 2.74133088 105.59131011 2.71875 108.25292969 C2.68845015 112.09059542 2.67773901 115.92785338 2.671875 119.765625 C2.6595282 120.96141174 2.6471814 122.15719849 2.63446045 123.38922119 C2.63746155 124.49086609 2.64046265 125.59251099 2.64355469 126.72753906 C2.63990906 127.69983459 2.63626343 128.67213013 2.63250732 129.67388916 C2.75377991 130.44150574 2.87505249 131.20912231 3 132 C3.99 132.66 4.98 133.32 6 134 C3.03 135.98 3.03 135.98 0 138 C0 92.46 0 46.92 0 0 Z " fill="#71B864" transform="translate(228,217)"/>
<path d="M0 0 C12.33561274 -0.40666855 12.33561274 -0.40666855 17 3 C19.56619697 6.42159595 19.50984054 9.84844133 19 14 C17.375 16.9375 17.375 16.9375 14 19 C9.2507486 19.41952617 4.7858301 19.22363692 0 19 C0 12.73 0 6.46 0 0 Z " fill="#F5FCF9" transform="translate(337,427)"/>
<path d="M0 0 C4.39742895 0.03426568 7.30617288 0.26534983 10.75 3.25 C11.95996679 5.66993358 12.02083271 7.4246633 12.125 10.125 C12.17398438 10.98867188 12.22296875 11.85234375 12.2734375 12.7421875 C11.75 15.25 11.75 15.25 9.65234375 17.5546875 C6.12346689 19.61596954 3.9914037 19.66379409 -0.0625 19.5 C-1.22394531 19.46390625 -2.38539063 19.4278125 -3.58203125 19.390625 C-4.46246094 19.34421875 -5.34289062 19.2978125 -6.25 19.25 C-6.27683987 16.27077407 -6.29676037 13.29178705 -6.3125 10.3125 C-6.32087891 9.46236328 -6.32925781 8.61222656 -6.33789062 7.73632812 C-6.34111328 6.92744141 -6.34433594 6.11855469 -6.34765625 5.28515625 C-6.35289307 4.5362915 -6.35812988 3.78742676 -6.36352539 3.01586914 C-6.11777505 -0.80673775 -3.18813081 0.05114648 0 0 Z " fill="#F8FEFB" transform="translate(527.25,426.75)"/>
<path d="M0 0 C4.95 0 9.9 0 15 0 C15 11.88 15 23.76 15 36 C14.67 36 14.34 36 14 36 C14 24.78 14 13.56 14 2 C10.04 2 6.08 2 2 2 C2.33 17.18 2.66 32.36 3 48 C-0.604476 42.593286 -0.13586985 37.04869466 -0.09765625 30.76171875 C-0.0962413 29.88095169 -0.09482635 29.00018463 -0.09336853 28.09272766 C-0.08778937 25.29094997 -0.07524071 22.48925338 -0.0625 19.6875 C-0.05748231 17.78320428 -0.05291987 15.87890731 -0.04882812 13.97460938 C-0.03782677 9.31637519 -0.02057649 4.65820133 0 0 Z " fill="#319E50" transform="translate(411,415)"/>
<path d="M0 0 C2.08940363 -0.00217445 4.17826879 -0.02029945 6.26757812 -0.03930664 C7.606118 -0.04224318 8.94466036 -0.04422623 10.28320312 -0.04516602 C11.49588867 -0.0492749 12.70857422 -0.05338379 13.95800781 -0.05761719 C17.46039561 0.19237391 20.15757924 0.7508997 23.36132812 2.18530273 C23.85632813 3.67030273 23.85632813 3.67030273 24.36132812 5.18530273 C21.72132813 4.52530273 19.08132813 3.86530273 16.36132812 3.18530273 C1.51132812 2.69030273 1.51132812 2.69030273 -13.63867188 2.18530273 C-13.63867188 22.64530273 -13.63867188 43.10530273 -13.63867188 64.18530273 C-13.96867187 64.18530273 -14.29867188 64.18530273 -14.63867188 64.18530273 C-14.63867188 43.39530273 -14.63867188 22.60530273 -14.63867188 1.18530273 C-10.38328032 -0.94239304 -4.72529098 -0.0005515 0 0 Z " fill="#C8F4DD" transform="translate(336.638671875,412.814697265625)"/>
<path d="M0 0 C0.33 0 0.66 0 1 0 C1.06058594 0.69867188 1.12117187 1.39734375 1.18359375 2.1171875 C1.26738281 3.02726562 1.35117188 3.93734375 1.4375 4.875 C1.51871094 5.77992188 1.59992188 6.68484375 1.68359375 7.6171875 C1.86989285 10.01110861 1.86989285 10.01110861 3 12 C2.6732039 14.33425788 2.33859959 16.66742506 2 19 C1.97669225 20.43731103 1.97643759 21.87519312 2 23.3125 C2 27 2 27 1 29 C1.66 29 2.32 29 3 29 C2.83832336 29.87058044 2.67664673 30.74116089 2.5100708 31.63812256 C2.03809163 34.74893804 1.86085762 37.64839143 1.83886719 40.79003906 C1.82925964 41.9042926 1.8196521 43.01854614 1.80975342 44.16656494 C1.80550354 45.35425476 1.80125366 46.54194458 1.796875 47.765625 C1.79117493 48.99537048 1.78547485 50.22511597 1.77960205 51.49212646 C1.77017641 54.0842605 1.76362778 56.67640639 1.75976562 59.26855469 C1.75323683 61.93034458 1.74133088 64.59131011 1.71875 67.25292969 C1.68845015 71.09059542 1.67773901 74.92785338 1.671875 78.765625 C1.6595282 79.96141174 1.6471814 81.15719849 1.63446045 82.38922119 C1.63746155 83.49086609 1.64046265 84.59251099 1.64355469 85.72753906 C1.63990906 86.69983459 1.63626343 87.67213013 1.63250732 88.67388916 C1.75377991 89.44150574 1.87505249 90.20912231 2 91 C2.99 91.66 3.98 92.32 5 93 C3.35 93.99 1.7 94.98 0 96 C0 64.32 0 32.64 0 0 Z " fill="#54AD44" transform="translate(229,258)"/>
<path d="M0 0 C16.5 0 33 0 50 0 C49.67 1.32 49.34 2.64 49 4 C49 3.01 49 2.02 49 1 C47.11667969 1.24556641 47.11667969 1.24556641 45.1953125 1.49609375 C36.7810963 2.33751537 28.32073955 2.10514712 19.875 2.0625 C18.13802212 2.05747515 16.40104284 2.05291398 14.6640625 2.04882812 C10.44267312 2.03790014 6.22135236 2.02068978 2 2 C2 4.97 2 7.94 2 11 C6.95 11 11.9 11 17 11 C17 11.33 17 11.66 17 12 C11.39 12 5.78 12 0 12 C0 8.04 0 4.08 0 0 Z " fill="#147140" transform="translate(131,415)"/>
<path d="M0 0 C3 3 3 3 3.328125 5.19140625 C3.30234375 5.97386719 3.2765625 6.75632813 3.25 7.5625 C3.22679687 8.74005859 3.22679687 8.74005859 3.203125 9.94140625 C3 12 3 12 2 14 C1.90948931 15.69543591 1.88245128 17.39443978 1.88647461 19.09228516 C1.88655014 20.15323395 1.88662567 21.21418274 1.88670349 22.30728149 C1.89186478 23.45626923 1.89702606 24.60525696 1.90234375 25.7890625 C1.9037587 26.96262299 1.90517365 28.13618347 1.90663147 29.3453064 C1.91224311 33.10522985 1.92479762 36.86509445 1.9375 40.625 C1.9425135 43.16926998 1.94707667 45.71354088 1.95117188 48.2578125 C1.96221632 54.50522853 1.97896582 60.75261006 2 67 C1.34 67 0.68 67 0 67 C0 44.89 0 22.78 0 0 Z " fill="#25A443" transform="translate(432,216)"/>
<path d="M0 0 C1.26714844 -0.01417969 2.53429687 -0.02835937 3.83984375 -0.04296875 C7.0625 0.1875 7.0625 0.1875 9.0625 2.1875 C3.7825 2.1875 -1.4975 2.1875 -6.9375 2.1875 C-6.81847995 7.71944482 -6.6941871 13.25123791 -6.56518555 18.78295898 C-6.52209883 20.66150768 -6.48040752 22.54008896 -6.44018555 24.41870117 C-6.38184067 27.13209822 -6.31833777 29.8453352 -6.25390625 32.55859375 C-6.22883751 33.80134315 -6.22883751 33.80134315 -6.20326233 35.06919861 C-6.06803155 40.49430532 -5.60109853 45.8007803 -4.9375 51.1875 C-6.9375 50.1875 -6.9375 50.1875 -8.0625 47.5 C-10.75858217 37.16087189 -8.87654898 24.95771244 -8.5 14.375 C-8.46068359 13.11107422 -8.42136719 11.84714844 -8.38085938 10.54492188 C-8.33896484 9.34802734 -8.29707031 8.15113281 -8.25390625 6.91796875 C-8.21724854 5.83926514 -8.18059082 4.76056152 -8.14282227 3.64916992 C-7.72748323 -1.3304537 -4.30619683 0.02185887 0 0 Z " fill="#DFFDED" transform="translate(417.9375,412.8125)"/>
<path d="M0 0 C-1.49417642 3.59410003 -3.56714505 5.59993864 -6.4375 8.1875 C-14.79508001 16.46458967 -14.57048955 25.75867472 -15 37 C-18.40896032 31.88655952 -17.50531771 26.64492245 -16.3828125 20.76953125 C-14.51755157 13.72940924 -9.03187383 0 0 0 Z " fill="#1A7A48" transform="translate(236,418)"/>
<path d="M0 0 C0.33 0 0.66 0 1 0 C1.33 16.17 1.66 32.34 2 49 C-2.62 49 -7.24 49 -12 49 C-12 47.35 -12 45.7 -12 44 C-11.67 44.99 -11.34 45.98 -11 47 C-7.37 47 -3.74 47 0 47 C0 31.49 0 15.98 0 0 Z " fill="#10773D" transform="translate(161,428)"/>
<path d="M0 0 C4.40970982 0.02293737 7.23965063 0.34488328 10.75 3.25 C10.42 3.91 10.09 4.57 9.75 5.25 C8.76 4.59 7.77 3.93 6.75 3.25 C3.09087399 2.68868689 -0.55257122 2.51099497 -4.25 2.25 C-4.25 7.53 -4.25 12.81 -4.25 18.25 C2.185 17.755 2.185 17.755 8.75 17.25 C6.75 19.25 6.75 19.25 3.7109375 19.4453125 C2.52757812 19.42210937 1.34421875 19.39890625 0.125 19.375 C-1.06351563 19.35695313 -2.25203125 19.33890625 -3.4765625 19.3203125 C-4.39179687 19.29710937 -5.30703125 19.27390625 -6.25 19.25 C-6.27683987 16.27077407 -6.29676037 13.29178705 -6.3125 10.3125 C-6.32087891 9.46236328 -6.32925781 8.61222656 -6.33789062 7.73632812 C-6.34111328 6.92744141 -6.34433594 6.11855469 -6.34765625 5.28515625 C-6.35289307 4.5362915 -6.35812988 3.78742676 -6.36352539 3.01586914 C-6.11777505 -0.80673775 -3.18813081 0.05114648 0 0 Z " fill="#C4F4D3" transform="translate(527.25,426.75)"/>
<path d="M0 0 C1.8975 -0.061875 3.795 -0.12375 5.75 -0.1875 C7.35101563 -0.23970703 7.35101563 -0.23970703 8.984375 -0.29296875 C12 0 12 0 16 3 C9.07 2.505 9.07 2.505 2 2 C2 7.28 2 12.56 2 18 C6.62 17.67 11.24 17.34 16 17 C14 19 14 19 10.7421875 19.1953125 C7.16145833 19.13020833 3.58072917 19.06510417 0 19 C0 12.73 0 6.46 0 0 Z " fill="#BAEACE" transform="translate(337,427)"/>
<path d="M0 0 C0.99 0.33 1.98 0.66 3 1 C-18.05263158 17 -18.05263158 17 -28 22 C-26.5772237 18.53814463 -24.99324246 16.99834133 -21.89453125 14.94140625 C-20.66573242 14.11479492 -20.66573242 14.11479492 -19.41210938 13.27148438 C-18.55423828 12.70751953 -17.69636719 12.14355469 -16.8125 11.5625 C-15.13110166 10.43941379 -13.45010568 9.31572497 -11.76953125 8.19140625 C-10.9595166 7.65660645 -10.14950195 7.12180664 -9.31494141 6.57080078 C-7.1771135 5.12018016 -5.12923062 3.5917033 -3.07421875 2.02734375 C-2.05972656 1.35832031 -1.04523438 0.68929688 0 0 Z " fill="#025823" transform="translate(303,303)"/>
<path d="M0 0 C5.94 0 11.88 0 18 0 C16 2 16 2 12.7421875 2.1953125 C9.16145833 2.13020833 5.58072917 2.06510417 2 2 C2 7.61 2 13.22 2 19 C1.34 19 0.68 19 0 19 C0 12.73 0 6.46 0 0 Z " fill="#B5E4CA" transform="translate(337,458)"/>
<path d="M0 0 C14.85 0 29.7 0 45 0 C41.34685159 2.92251873 37.88488011 5.47031062 34 8 C34.8125 6.0625 34.8125 6.0625 36 4 C36.99 3.67 37.98 3.34 39 3 C39 2.34 39 1.68 39 1 C26.13 1 13.26 1 0 1 C0 0.67 0 0.34 0 0 Z " fill="#369F45" transform="translate(286,284)"/>
<path d="M0 0 C0 0.66 0 1.32 0 2 C-1.51509155 1.76228882 -1.51509155 1.76228882 -3.06079102 1.51977539 C-6.74419564 1.03375317 -10.31605321 0.79905612 -14.02734375 0.68359375 C-15.31318359 0.64169922 -16.59902344 0.59980469 -17.92382812 0.55664062 C-19.26171625 0.516843 -20.59960691 0.47713049 -21.9375 0.4375 C-23.30274562 0.39423346 -24.66798018 0.35061679 -26.03320312 0.30664062 C-29.35537652 0.20098847 -32.67761946 0.09888605 -36 0 C-36 -0.33 -36 -0.66 -36 -1 C-6.07205729 -2.75310125 -6.07205729 -2.75310125 0 0 Z " fill="#D0FFE5" transform="translate(542,415)"/>
<path d="M0 0 C0.99 0.33 1.98 0.66 3 1 C2.51104248 1.38067627 2.02208496 1.76135254 1.51831055 2.15356445 C-0.563383 4.68513678 -0.34450508 6.29618027 -0.29296875 9.54296875 C-0.28330078 10.61611328 -0.27363281 11.68925781 -0.26367188 12.79492188 C-0.23853516 13.91447266 -0.21339844 15.03402344 -0.1875 16.1875 C-0.16719727 17.88422852 -0.16719727 17.88422852 -0.14648438 19.61523438 C-0.11109958 22.41063317 -0.06172948 25.20507892 0 28 C2.64 28.33 5.28 28.66 8 29 C8 29.33 8 29.66 8 30 C4.7 30 1.4 30 -2 30 C-2 20.43 -2 10.86 -2 1 C-1.34 0.67 -0.68 0.34 0 0 Z " fill="#043C23" transform="translate(219,361)"/>
<path d="M0 0 C0.66163651 0.0028299 1.32327301 0.00565979 2.00495911 0.00857544 C4.11416862 0.01975332 6.2229505 0.04485269 8.33203125 0.0703125 C9.76366573 0.08034543 11.19530689 0.08947074 12.62695312 0.09765625 C16.13295102 0.11968455 19.63869938 0.15419765 23.14453125 0.1953125 C23.14453125 0.5253125 23.14453125 0.8553125 23.14453125 1.1953125 C22.32251221 1.20989502 21.50049316 1.22447754 20.65356445 1.23950195 C16.92091802 1.31407583 13.18915666 1.41070762 9.45703125 1.5078125 C8.16345703 1.53037109 6.86988281 1.55292969 5.53710938 1.57617188 C3.66635742 1.6293457 3.66635742 1.6293457 1.7578125 1.68359375 C0.61094971 1.70977783 -0.53591309 1.73596191 -1.7175293 1.76293945 C-5.11991857 2.23175074 -7.06948193 3.23531031 -9.85546875 5.1953125 C-9.85546875 4.2053125 -9.85546875 3.2153125 -9.85546875 2.1953125 C-6.1761743 -0.25755046 -4.38168968 -0.03697628 0 0 Z " fill="#03562C" transform="translate(337.85546875,283.8046875)"/>
<path d="M0 0 C0.66 0.33 1.32 0.66 2 1 C-3.71698693 6.09893429 -10.13761888 10.56880944 -17 14 C-15.65610229 10.84272066 -14.40061696 9.27497364 -11.5234375 7.421875 C-10.853125 6.98359375 -10.1828125 6.5453125 -9.4921875 6.09375 C-8.44417969 5.42859375 -8.44417969 5.42859375 -7.375 4.75 C-6.31539063 4.06164062 -6.31539063 4.06164062 -5.234375 3.359375 C-3.49502567 2.23114841 -1.74821759 1.11443555 0 0 Z " fill="#025D27" transform="translate(324,289)"/>
<path d="M0 0 C0.66 0 1.32 0 2 0 C3.97515118 4.07185012 4.14804104 7.01680091 3.75 11.5 C3.66234375 12.6034375 3.5746875 13.706875 3.484375 14.84375 C3.02313414 17.84925496 2.25488556 20.24336615 1 23 C0.34 23 -0.32 23 -1 23 C-0.67 22.071875 -0.34 21.14375 0 20.1875 C1.8866891 13.61754008 1.49151351 6.61038786 0 0 Z " fill="#D4F8E3" transform="translate(369,426)"/>
<path d="M0 0 C5.28 0 10.56 0 16 0 C13.14787234 2.85212766 10.98009518 2.73901015 7 3 C4.54740506 2.52944399 2.37043901 1.82239721 0 1 C0 0.67 0 0.34 0 0 Z " fill="#D8F8E5" transform="translate(243,478)"/>
<path d="M0 0 C0.99 0.66 1.98 1.32 3 2 C2.26394531 2.06058594 1.52789062 2.12117188 0.76953125 2.18359375 C-0.20628906 2.26738281 -1.18210938 2.35117187 -2.1875 2.4375 C-3.15042969 2.51871094 -4.11335937 2.59992188 -5.10546875 2.68359375 C-7.78649602 2.97666151 -10.3662986 3.42703754 -13 4 C-9.07646467 -0.10187784 -5.64088038 -0.65903355 0 0 Z " fill="#C8F1DA" transform="translate(254,427)"/>
<path d="M0 0 C0.66 0.33 1.32 0.66 2 1 C-4.93548387 6.96774194 -4.93548387 6.96774194 -9 9 C-9.66 8.67 -10.32 8.34 -11 8 C-9.72992786 7.0406581 -8.45891081 6.08256706 -7.1875 5.125 C-6.47980469 4.59132813 -5.77210938 4.05765625 -5.04296875 3.5078125 C-3.39543703 2.29185219 -1.70375789 1.13583859 0 0 Z " fill="#054D20" transform="translate(238,348)"/>
<path d="M0 0 C0.2475 0.515625 0.495 1.03125 0.75 1.5625 C1.77124038 3.55391875 2.87452006 5.50308136 4 7.4375 C5.60329211 10.21334903 6.90190477 12.98023812 8 16 C4.41756354 12.61658779 1.35704473 9.35146718 -1 5 C-0.75 2.125 -0.75 2.125 0 0 Z " fill="#3AA64E" transform="translate(433,292)"/>
<path d="M0 0 C2 3 2 3 2 7 C2.99 7.66 3.98 8.32 5 9 C2.525 10.485 2.525 10.485 0 12 C0 8.04 0 4.08 0 0 Z " fill="#58B652" transform="translate(229,342)"/>
<path d="M0 0 C1.89551022 -0.05441656 3.7914792 -0.09298035 5.6875 -0.125 C6.74324219 -0.14820313 7.79898438 -0.17140625 8.88671875 -0.1953125 C12.02251859 0.00141271 14.17645373 0.66942346 17 2 C17 2.66 17 3.32 17 4 C14.69 3.67 12.38 3.34 10 3 C10 2.34 10 1.68 10 1 C6.7 1 3.4 1 0 1 C0 0.67 0 0.34 0 0 Z " fill="#D9F7E4" transform="translate(525,413)"/>
<path d="M0 0 C0.99 0 1.98 0 3 0 C2.34 2.64 1.68 5.28 1 8 C0.01 7.67 -0.98 7.34 -2 7 C-1.34 4.69 -0.68 2.38 0 0 Z " fill="#208A52" transform="translate(266,450)"/>
<path d="M0 0 C1 3 1 3 0.3125 5.5625 C-1 8 -1 8 -5 10 C-3.35 6.7 -1.7 3.4 0 0 Z " fill="#36A255" transform="translate(449,454)"/>
<path d="M0 0 C1.32 0.33 2.64 0.66 4 1 C-0.455 3.97 -0.455 3.97 -5 7 C-3 3 -3 3 0 2 C0 1.34 0 0.68 0 0 Z " fill="#35AB4C" transform="translate(325,285)"/>
<path d="M0 0 C3 3 3 3 3.36328125 5.19140625 C3.34652344 5.97386719 3.32976562 6.75632813 3.3125 7.5625 C3.30863281 8.34753906 3.30476563 9.13257813 3.30078125 9.94140625 C3 12 3 12 1 14 C0.67 9.38 0.34 4.76 0 0 Z " fill="#3DB153" transform="translate(432,216)"/>
<path d="M0 0 C2 1 2 1 3.125 4.0625 C3.41375 5.031875 3.7025 6.00125 4 7 C3.34 7 2.68 7 2 7 C1.67 7.66 1.34 8.32 1 9 C0.67 6.03 0.34 3.06 0 0 Z " fill="#E7FEF5" transform="translate(432,298)"/>
<path d="M0 0 C-2.64 1.65 -5.28 3.3 -8 5 C-8 4.01 -8 3.02 -8 2 C-3.71900826 -1.23966942 -3.71900826 -1.23966942 0 0 Z " fill="#48AF52" transform="translate(245,344)"/>
</svg>
